#!OML:ASF H:\ManfredObstacles\Project 1\Capture day 2\Session 1\male.ASF
:FULLY-SPECIFIED
:DEGREES
478
root 2.24412 8.55607 -4.35133 -169.4 -4.969 -187.63
lowerback 44.119 3.22434 -0.0770499
upperback 17.245 -3.18464 1.06313
thorax -1.22277 -4.27988 2.3744
lowerneck -34.4123 -0.577348 1.65829
upperneck 24.7644 -3.37572 4.46043
head 14.241 -0.617792 0.828136
rclavicle 1.03368e-014 5.76476e-015
rhumerus 35.9214 1.7387 -82.6129
rradius 19.4995
rwrist 48.4028
rhand -22.9117 -13.8488
rfingers 7.12502
rthumb 3.52833 -43.7994
lclavicle 1.03368e-014 5.76476e-015
lhumerus 32.0206 11.6014 85.6023
lradius 14.7287
lwrist -66.3081
lhand -6.58651 8.36837
lfingers 7.12502
lthumb 19.2685 37.4338
rfemur -88.2483 -3.47175 27.2088
rtibia 138.263
rfoot -33.7255 -28.2309
rtoes -31.9961
lfemur -83.6921 17.7107 -24.0748
ltibia 143.297
lfoot -11.8445 14.8126
ltoes -14.1502
479
root 2.28351 8.59074 -4.38499 -169.347 -5.05951 -188.037
lowerback 44.1861 3.28645 -0.216472
upperback 17.2751 -3.17443 1.00953
thorax -1.20746 -4.28103 2.38473
lowerneck -34.3894 -0.59538 1.67914
upperneck 24.6905 -3.36335 4.35685
head 14.2005 -0.62665 0.784541
rclavicle -3.93594e-014 3.81667e-014
rhumerus 35.7524 1.39538 -82.8718
rradius 19.316
rwrist 48.8706
rhand -23.387 -14.0995
rfingers 7.12502
rthumb 3.06936 -44.0571
lclavicle -3.93594e-014 3.81667e-014
lhumerus 32.6148 12.1307 86.0098
lradius 14.5948
lwrist -66.6996
lhand -5.85444 8.05273
lfingers 7.12502
lthumb 19.9723 37.0464
rfemur -87.896 -3.75303 27.0575
rtibia 138.139
rfoot -33.9252 -28.0649
rtoes -31.9067
lfemur -84.1461 17.9441 -24.2756
ltibia 143.244
lfoot -11.63 15.9456
ltoes -13.77
480
root 2.32192 8.62126 -4.41985 -169.297 -5.13845 -188.441
lowerback 44.2148 3.36367 -0.374227
upperback 17.3056 -3.14747 0.955211
thorax -1.18238 -4.27374 2.39605
lowerneck -34.3127 -0.613499 1.68226
upperneck 24.6125 -3.34261 4.25894
head 14.1486 -0.633953 0.747808
rclavicle -1.55052e-014 1.59028e-015
rhumerus 35.5532 0.957756 -83.23
rradius 19.1538
rwrist 49.3146
rhand -23.8269 -14.3168
rfingers 7.12502
rthumb 2.6445 -44.2802
lclavicle -1.55052e-014 1.59028e-015
lhumerus 33.1572 12.5596 86.3701
lradius 14.4853
lwrist -67.0867
lhand -5.23597 7.77776
lfingers 7.12502
lthumb 20.5667 36.7083
rfemur -87.576 -4.02266 26.9208
rtibia 138.058
rfoot -34.1526 -27.8776
rtoes -31.7718
lfemur -84.7017 18.1911 -24.55
ltibia 143.197
lfoot -11.1892 17.6235
ltoes -13.2232
481
root 2.35872 8.64712 -4.45651 -169.259 -5.20971 -188.827
lowerback 44.2071 3.45175 -0.52963
upperback 17.3386 -3.10136 0.904806
thorax -1.14578 -4.25643 2.40193
lowerneck -34.1959 -0.635801 1.67475
upperneck 24.5442 -3.31873 4.15092
head 14.0933 -0.642951 0.709414
rclavicle 6.75868e-015 1.09332e-014
rhumerus 35.3211 0.478344 -83.6121
rradius 19.03
rwrist 49.6357
rhand -24.185 -14.4824
rfingers 7.12502
rthumb 2.29866 -44.4497
lclavicle 6.75868e-015 1.09332e-014
lhumerus 33.6212 12.7932 86.619
lradius 14.4198
lwrist -67.3011
lhand -4.72136 7.53178
lfingers 7.12502
lthumb 21.0611 36.4081
rfemur -87.2588 -4.2806 26.811
rtibia 138.022
rfoot -34.3881 -27.7215
rtoes -31.6475
lfemur -85.3593 18.4579 -24.8717
ltibia 143.119
lfoot -10.6457 19.5823
ltoes -12.664
482
root 2.39377 8.6681 -4.49475 -169.25 -5.28323 -189.176
lowerback 44.1926 3.54227 -0.67338
upperback 17.37 -3.04613 0.870276
thorax -1.10909 -4.23543 2.41533
lowerneck -34.0575 -0.660202 1.63767
upperneck 24.5022 -3.28173 4.03545
head 14.0454 -0.65013 0.675851
rclavicle -2.06736e-014 3.97569e-016
rhumerus 35.046 0.0160751 -83.9741
rradius 18.9624
rwrist 49.8419
rhand -24.4431 -14.592
rfingers 7.12502
rthumb 2.04938 -44.5619
lclavicle -2.06736e-014 3.97569e-016
lhumerus 33.9656 12.7671 86.6695
lradius 14.4132
lwrist -67.2373
lhand -4.34721 7.30173
lfingers 7.12502
lthumb 21.4205 36.1376
rfemur -86.9094 -4.51733 26.7465
rtibia 138.021
rfoot -34.6244 -27.6307
rtoes -31.579
lfemur -86.1245 18.7492 -25.2043
ltibia 142.973
lfoot -10.1976 21.5235
ltoes -12.1665
483
root 2.42688 8.68384 -4.53426 -169.274 -5.36526 -189.483
lowerback 44.1753 3.62744 -0.781017
upperback 17.4048 -2.98379 0.840338
thorax -1.06828 -4.21 2.41244
lowerneck -33.9182 -0.691423 1.58174
upperneck 24.4864 -3.24946 3.92569
head 14.0091 -0.659831 0.646938
rclavicle -1.66979e-014 -1.59028e-014
rhumerus 34.7282 -0.43994 -84.3064
rradius 18.9491
rwrist 50.0061
rhand -24.6206 -14.6525
rfingers 7.12502
rthumb 1.87802 -44.6239
lclavicle -1.66979e-014 -1.59028e-014
lhumerus 34.1767 12.3838 86.4351
lradius 14.4908
lwrist -66.8024
lhand -4.08997 7.08669
lfingers 7.12502
lthumb 21.6676 35.8942
rfemur -86.5256 -4.7333 26.7277
rtibia 138.056
rfoot -34.8331 -27.6313
rtoes -31.5951
lfemur -87.0079 19.0639 -25.5474
ltibia 142.727
lfoot -10.0328 23.2106
ltoes -11.8558
484
root 2.45796 8.69456 -4.57513 -169.34 -5.455 -189.733
lowerback 44.1616 3.70529 -0.839543
upperback 17.4468 -2.91472 0.818668
thorax -1.02073 -4.18093 2.39064
lowerneck -33.7788 -0.720138 1.52473
upperneck 24.5059 -3.21272 3.80407
head 13.9876 -0.668937 0.614596
rclavicle 8.74653e-015 -9.34288e-015
rhumerus 34.371 -0.870552 -84.5881
rradius 18.9896
rwrist 50.1652
rhand -24.729 -14.6805
rfingers 7.12502
rthumb 1.77329 -44.6528
lclavicle 8.74653e-015 -9.34288e-015
lhumerus 34.2578 11.6147 85.8856
lradius 14.6602
lwrist -65.9695
lhand -3.98125 6.89229
lfingers 7.12502
lthumb 21.772 35.6878
rfemur -86.0932 -4.90746 26.7586
rtibia 138.117
rfoot -35.0267 -27.7039
rtoes -31.6662
lfemur -87.9942 19.404 -25.8919
ltibia 142.363
lfoot -10.2 24.5041
ltoes -11.7274
485
root 2.48721 8.69965 -4.61678 -169.445 -5.56056 -189.924
lowerback 44.1554 3.76826 -0.843101
upperback 17.4932 -2.84489 0.800061
thorax -0.970591 -4.14975 2.34399
lowerneck -33.6393 -0.752086 1.45071
upperneck 24.5612 -3.18383 3.70463
head 13.9825 -0.679375 0.592557
rclavicle 3.33958e-014 1.55052e-014
rhumerus 33.9845 -1.23651 -84.7897
rradius 19.0697
rwrist 50.2856
rhand -24.8305 -14.6966
rfingers 7.12502
rthumb 1.67523 -44.6698
lclavicle 3.33958e-014 1.55052e-014
lhumerus 34.2188 10.4662 85.0109
lradius 14.9345
lwrist -64.7628
lhand -3.98547 6.73894
lfingers 7.12502
lthumb 21.7679 35.5349
rfemur -85.637 -5.02662 26.843
rtibia 138.204
rfoot -35.1472 -27.8936
rtoes -31.8017
lfemur -88.9455 18.3063 -25.845
ltibia 141.878
lfoot -10.0522 25.6491
ltoes -11.7627
486
root 2.51519 8.69982 -4.65902 -169.586 -5.67754 -190.07
lowerback 44.1539 3.82043 -0.818496
upperback 17.5413 -2.77949 0.784093
thorax -0.919745 -4.12032 2.28755
lowerneck -33.4793 -0.77354 1.38376
upperneck 24.6412 -3.14366 3.59666
head 13.9837 -0.685797 0.568338
rclavicle -5.56597e-015 1.39149e-014
rhumerus 33.5731 -1.50234 -84.8951
rradius 19.1761
rwrist 50.3814
rhand -24.9335 -14.7043
rfingers 7.12502
rthumb 1.57583 -44.6782
lclavicle -5.56597e-015 1.39149e-014
lhumerus 34.0898 9.11406 83.9455
lradius 15.3119
lwrist -63.4422
lhand -4.12192 6.63251
lfingers 7.12502
lthumb 21.6369 35.4436
rfemur -85.1617 -5.10236 26.9668
rtibia 138.315
rfoot -35.1647 -28.2027
rtoes -31.9811
lfemur -89.9573 17.0868 -25.7431
ltibia 141.273
lfoot -9.96507 26.4745
ltoes -11.791
487
root 2.54182 8.69482 -4.70194 -169.763 -5.80674 -190.182
lowerback 44.1598 3.86412 -0.799322
upperback 17.5814 -2.72657 0.784406
thorax -0.878394 -4.09882 2.25642
lowerneck -33.265 -0.777585 1.30383
upperneck 24.73 -3.06788 3.47366
head 13.9777 -0.681559 0.547563
rclavicle -3.18055e-015 1.03368e-014
rhumerus 33.137 -1.56946 -84.8328
rradius 19.3005
rwrist 50.3402
rhand -25.03 -14.7159
rfingers 7.12502
rthumb 1.48255 -44.6905
lclavicle -3.18055e-015 1.03368e-014
lhumerus 33.8882 7.61304 82.7324
lradius 15.7796
lwrist -61.9087
lhand -4.31901 6.62014
lfingers 7.12502
lthumb 21.4476 35.4529
rfemur -84.6706 -5.15796 27.1102
rtibia 138.454
rfoot -35.0595 -28.6273
rtoes -32.2232
lfemur -91.0082 15.7895 -25.6166
ltibia 140.568
lfoot -9.88058 27.0596
ltoes -11.8256
488
root 2.56744 8.68495 -4.7452 -169.973 -5.94248 -190.271
lowerback 44.1763 3.90142 -0.792228
upperback 17.6133 -2.68703 0.790409
thorax -0.847964 -4.08544 2.24318
lowerneck -32.9909 -0.766095 1.20896
upperneck 24.8166 -2.96265 3.34959
head 13.9591 -0.667698 0.534821
rclavicle -6.36111e-015 -2.40529e-014
rhumerus 32.6813 -1.48757 -84.6666
rradius 19.4273
rwrist 50.2228
rhand -25.1207 -14.7273
rfingers 7.12502
rthumb 1.39496 -44.7025
lclavicle -6.36111e-015 -2.40529e-014
lhumerus 33.6437 6.1135 81.4801
lradius 16.3143
lwrist -60.4261
lhand -4.58915 6.68281
lfingers 7.12502
lthumb 21.1881 35.5449
rfemur -84.1676 -5.19536 27.2654
rtibia 138.625
rfoot -34.8637 -29.1257
rtoes -32.5314
lfemur -92.097 14.4523 -25.4946
ltibia 139.779
lfoot -9.72133 27.4844
ltoes -11.8108
489
root 2.59174 8.67073 -4.78933 -170.216 -6.07683 -190.355
lowerback 44.1985 3.94138 -0.803656
upperback 17.6441 -2.65462 0.80082
thorax -0.819619 -4.07834 2.2468
lowerneck -32.7172 -0.752403 1.09894
upperneck 24.9214 -2.84662 3.21747
head 13.9481 -0.651864 0.523589
rclavicle 4.05521e-014 7.15625e-015
rhumerus 32.2167 -1.25381 -84.3786
rradius 19.5577
rwrist 49.9487
rhand -25.1922 -14.7386
rfingers 7.12502
rthumb 1.32598 -44.7142
lclavicle 4.05521e-014 7.15625e-015
lhumerus 33.3864 4.71947 80.3147
lradius 16.8978
lwrist -59.0633
lhand -4.88313 6.81697
lfingers 7.12502
lthumb 20.9057 35.7105
rfemur -83.6452 -5.2573 27.4045
rtibia 138.836
rfoot -34.643 -29.6113
rtoes -32.885
lfemur -93.1992 13.0894 -25.4182
ltibia 138.923
lfoot -9.48271 27.8478
ltoes -11.808
